<svg width="24" height="23" viewBox="0 0 24 23" fill="none" xmlns="http://www.w3.org/2000/svg">
<mask id="path-1-inside-1_8570_2554" fill="white">
<path d="M23.2548 11.6863L17.598 17.3431C14.4738 20.4673 9.40845 20.4673 6.28426 17.3431L0.627405 11.6863L11.9411 0.372571L23.2548 11.6863Z"/>
</mask>
<path d="M26.0832 14.5147L20.4264 20.1716C15.7401 24.8579 8.14212 24.8579 3.45583 20.1716L9.11269 14.5147C10.6748 16.0768 13.2074 16.0768 14.7695 14.5147L20.4264 8.85785L26.0832 14.5147ZM0.627405 11.6863L11.9411 0.372571L0.627405 11.6863ZM11.9411 0.372571L23.2548 11.6863L11.9411 0.372571ZM20.4264 20.1716C15.7401 24.8579 8.14212 24.8579 3.45583 20.1716L-2.20102 14.5147L3.45583 8.85785L9.11269 14.5147C10.6748 16.0768 13.2074 16.0768 14.7695 14.5147L20.4264 20.1716Z" fill="#171717" mask="url(#path-1-inside-1_8570_2554)"/>
<rect x="13.6274" y="4" width="4" height="4" rx="2" transform="rotate(-180 13.6274 4)" fill="#171717"/>
<rect x="13.6274" y="12" width="4" height="4" rx="2" transform="rotate(-180 13.6274 12)" fill="#171717"/>
</svg>
