<svg width="24" height="23" viewBox="0 0 24 23" fill="none" xmlns="http://www.w3.org/2000/svg">
<mask id="path-1-inside-1_8570_2517" fill="white">
<path d="M11.5685 22.6274L5.91169 16.9706C2.78749 13.8464 2.78749 8.78107 5.91169 5.65688L11.5685 2.47955e-05L22.8823 11.3137L11.5685 22.6274Z"/>
</mask>
<path d="M8.74012 25.4559L3.08326 19.799C-1.60303 15.1127 -1.60303 7.51474 3.08326 2.82845L8.74012 8.48531C7.17802 10.0474 7.17802 12.5801 8.74012 14.1422L14.397 19.799L8.74012 25.4559ZM11.5685 2.47955e-05L22.8823 11.3137L11.5685 2.47955e-05ZM22.8823 11.3137L11.5685 22.6274L22.8823 11.3137ZM3.08326 19.799C-1.60303 15.1127 -1.60303 7.51474 3.08326 2.82845L8.74012 -2.8284L14.397 2.82845L8.74012 8.48531C7.17802 10.0474 7.17802 12.5801 8.74012 14.1422L3.08326 19.799Z" fill="#171717" mask="url(#path-1-inside-1_8570_2517)"/>
<rect x="19.2548" y="13" width="4" height="4" rx="2" transform="rotate(-90 19.2548 13)" fill="#171717"/>
<rect x="11.2548" y="13" width="4" height="4" rx="2" transform="rotate(-90 11.2548 13)" fill="#171717"/>
</svg>
