<svg width="24" height="23" viewBox="0 0 24 23" fill="none" xmlns="http://www.w3.org/2000/svg">
<mask id="path-1-inside-1_8570_2530" fill="white">
<path d="M12.3137 0L17.9705 5.65685C21.0947 8.78105 21.0947 13.8464 17.9705 16.9706L12.3137 22.6274L0.999982 11.3137L12.3137 0Z"/>
</mask>
<path d="M15.1421 -2.82843L20.799 2.82843C25.4853 7.51472 25.4853 15.1127 20.799 19.799L15.1421 14.1421C16.7042 12.58 16.7042 10.0474 15.1421 8.48528L9.48526 2.82843L15.1421 -2.82843ZM12.3137 22.6274L0.999982 11.3137L12.3137 22.6274ZM0.999982 11.3137L12.3137 0L0.999982 11.3137ZM20.799 2.82843C25.4853 7.51472 25.4853 15.1127 20.799 19.799L15.1421 25.4558L9.48526 19.799L15.1421 14.1421C16.7042 12.58 16.7042 10.0474 15.1421 8.48528L20.799 2.82843Z" fill="#171717" mask="url(#path-1-inside-1_8570_2530)"/>
<rect x="4.62741" y="9.62744" width="4" height="4" rx="2" transform="rotate(90 4.62741 9.62744)" fill="#171717"/>
<rect x="12.6274" y="9.62744" width="4" height="4" rx="2" transform="rotate(90 12.6274 9.62744)" fill="#171717"/>
</svg>
