<svg width="12" height="8" viewBox="0 0 12 8" fill="none" xmlns="http://www.w3.org/2000/svg">
<path d="M10.4999 0.727118C10.4999 0.324931 10.8351 0 11.25 0C11.6648 0 12 0.324931 12 0.727118V2.90847C12 4.11276 10.9921 5.08982 9.74989 5.08982L2.56126 5.08982L4.28165 6.75765C4.57464 7.04168 4.57464 7.50295 4.28165 7.78698C3.98867 8.07101 3.51287 8.07101 3.21988 7.78698L0.219737 4.87851C-0.0732457 4.59448 -0.0732457 4.13321 0.219737 3.84918L3.21988 0.940708C3.51287 0.656678 3.98867 0.656678 4.28165 0.940708C4.57464 1.22474 4.57464 1.686 4.28165 1.97003L2.56126 3.63559L9.74989 3.63559C10.1648 3.63559 10.4999 3.31066 10.4999 2.90847V0.727118Z" fill="#262626"/>
</svg>
