<svg width="23" height="23" viewBox="0 0 23 23" fill="none" xmlns="http://www.w3.org/2000/svg">
<mask id="path-1-inside-1_8570_2542" fill="white">
<path d="M0 11.3137L5.65685 5.65687C8.78105 2.53267 13.8464 2.53267 16.9706 5.65687L22.6274 11.3137L11.3137 22.6274L0 11.3137Z"/>
</mask>
<path d="M-2.82843 8.48529L2.82843 2.82844C7.51472 -1.85785 15.1127 -1.85785 19.799 2.82844L14.1421 8.48529C12.58 6.9232 10.0474 6.9232 8.48528 8.48529L2.82843 14.1421L-2.82843 8.48529ZM22.6274 11.3137L11.3137 22.6274L22.6274 11.3137ZM11.3137 22.6274L0 11.3137L11.3137 22.6274ZM2.82843 2.82844C7.51472 -1.85785 15.1127 -1.85785 19.799 2.82844L25.4558 8.48529L19.799 14.1421L14.1421 8.48529C12.58 6.9232 10.0474 6.9232 8.48528 8.48529L2.82843 2.82844Z" fill="#171717" mask="url(#path-1-inside-1_8570_2542)"/>
<rect x="9.62744" y="19" width="4" height="4" rx="2" fill="#171717"/>
<rect x="9.62744" y="11" width="4" height="4" rx="2" fill="#171717"/>
</svg>
