<svg width="12" height="12" viewBox="0 0 12 12" fill="none" xmlns="http://www.w3.org/2000/svg">
<path d="M10 0C11.1046 1.28851e-07 12 0.895431 12 2V10C12 11.1046 11.1046 12 10 12H2C0.895431 12 3.22133e-08 11.1046 0 10V2C1.28853e-07 0.895431 0.895431 3.22128e-08 2 0H10ZM9.1709 3.17188C7.6991 1.6989 5.36375 1.61466 3.79199 2.91895L2.9834 2.10938C2.87559 2.0034 2.71469 1.97057 2.57422 2.02832C2.43375 2.08611 2.3429 2.2236 2.34277 2.375V4.625C2.34277 4.83268 2.51013 4.9998 2.71777 5H4.96777C5.11934 5 5.25762 4.90917 5.31543 4.76855C5.37296 4.62805 5.34108 4.46706 5.2334 4.35938L4.50391 3.62988C5.68036 2.71438 7.38358 2.79702 8.46484 3.87793C9.6367 5.04974 9.63667 6.94829 8.46484 8.12012C7.29297 9.29194 5.39453 9.29194 4.22266 8.12012C4.06338 7.96081 3.92612 7.78721 3.81055 7.60449C3.6621 7.3718 3.35288 7.3038 3.12012 7.45215C2.8873 7.60058 2.81836 7.90978 2.9668 8.14258C3.11983 8.38612 3.30233 8.61735 3.51465 8.82812C5.0771 10.3905 7.60839 10.3904 9.1709 8.82812C10.7334 7.26569 10.7334 4.73431 9.1709 3.17188Z" fill="#262626"/>
</svg>
