<svg width="12" height="12" viewBox="0 0 12 12" fill="none" xmlns="http://www.w3.org/2000/svg">
<path d="M10.2998 0C11.2387 0 12 0.761311 12 1.7002V10.2998C12 11.2387 11.2387 12 10.2998 12H1.7002C0.761311 12 0 11.2387 0 10.2998V1.7002C0 0.761311 0.761311 0 1.7002 0H10.2998ZM3.42383 4.62109V8.65137C3.42383 9.11927 3.80459 9.49986 4.27246 9.5H7.66699C8.13484 9.49982 8.51562 9.11925 8.51562 8.65137V4.62109H3.42383ZM4.59082 5.46973C4.76715 5.46973 4.90918 5.61176 4.90918 5.78809V8.33301C4.90918 8.50933 4.76715 8.65137 4.59082 8.65137C4.41454 8.65132 4.27246 8.5093 4.27246 8.33301V5.78809C4.27246 5.61179 4.41454 5.46977 4.59082 5.46973ZM5.96973 5.46973C6.14604 5.46974 6.28809 5.61177 6.28809 5.78809V8.33301C6.28809 8.50932 6.14604 8.65135 5.96973 8.65137C5.7934 8.65137 5.65137 8.50933 5.65137 8.33301V5.78809C5.65137 5.61176 5.7934 5.46973 5.96973 5.46973ZM7.34863 5.46973C7.52489 5.46981 7.66699 5.61181 7.66699 5.78809V8.33301C7.66699 8.50928 7.52489 8.65129 7.34863 8.65137C7.17231 8.65137 7.03027 8.50933 7.03027 8.33301V5.78809C7.03027 5.61176 7.17231 5.46973 7.34863 5.46973ZM5.21582 2.5C5.03298 2.5 4.87093 2.61655 4.8125 2.79004L4.69727 3.13672H3.42383C3.18938 3.13694 3.00003 3.32605 3 3.56055C3 3.79507 3.18936 3.98415 3.42383 3.98438H8.51562C8.75007 3.98412 8.93945 3.79505 8.93945 3.56055C8.93942 3.32607 8.75005 3.13697 8.51562 3.13672H7.24219L7.12793 2.79004C7.0695 2.61666 6.90831 2.50009 6.72559 2.5H5.21582Z" fill="#262626"/>
</svg>
