<svg width="12" height="12" viewBox="0 0 12 12" fill="none" xmlns="http://www.w3.org/2000/svg">
<path d="M10.2998 0C11.2387 0 12 0.761311 12 1.7002V10.2998C12 11.2387 11.2387 12 10.2998 12H1.7002C0.761311 12 0 11.2387 0 10.2998V1.7002C0 0.761311 0.761311 0 1.7002 0H10.2998ZM3.71094 9.4043C3.73236 9.73967 4.01376 9.99993 4.35254 10H7.64746C7.98624 9.99993 8.26764 9.73967 8.28906 9.4043L8.57129 5.12109H3.42871L3.71094 9.4043ZM5.23828 3C5.05358 3 4.89008 3.11656 4.83105 3.29004L4.71387 3.63672H3.42871C3.19168 3.63672 3.00003 3.82592 3 4.06055C3 4.29521 3.19166 4.48438 3.42871 4.48438H8.57129C8.80834 4.48438 9 4.29521 9 4.06055C8.99997 3.82592 8.80832 3.63672 8.57129 3.63672H7.28613L7.16895 3.29004C7.10992 3.11656 6.94642 3 6.76172 3H5.23828Z" fill="#262626"/>
</svg>
