<svg width="12" height="12" viewBox="0 0 12 12" fill="none" xmlns="http://www.w3.org/2000/svg">
<path d="M1.71429 1.28571C1.47857 1.28571 1.28571 1.47857 1.28571 1.71429V10.2857C1.28571 10.5214 1.47857 10.7143 1.71429 10.7143H10.2857C10.5214 10.7143 10.7143 10.5214 10.7143 10.2857V1.71429C10.7143 1.47857 10.5214 1.28571 10.2857 1.28571H1.71429ZM0 1.71429C0 0.76875 0.76875 0 1.71429 0H10.2857C11.2313 0 12 0.76875 12 1.71429V10.2857C12 11.2313 11.2313 12 10.2857 12H1.71429C0.76875 12 0 11.2313 0 10.2857V1.71429ZM8.26071 4.62589L6.11786 8.05446C6.00536 8.23393 5.8125 8.34643 5.60089 8.35714C5.38929 8.36786 5.18571 8.27143 5.05982 8.1L3.77411 6.38571C3.55982 6.10179 3.61875 5.7 3.90268 5.48571C4.18661 5.27143 4.58839 5.33036 4.80268 5.61429L5.52589 6.57857L7.17054 3.94554C7.35804 3.64554 7.75446 3.55179 8.05714 3.74196C8.35982 3.93214 8.45089 4.32589 8.26071 4.62857V4.62589Z" fill="#262626"/>
</svg>
