<svg width="12" height="12" viewBox="0 0 12 12" fill="none" xmlns="http://www.w3.org/2000/svg">
<path d="M1.71429 0C0.76875 0 0 0.76875 0 1.71429V10.2857C0 11.2312 0.76875 12 1.71429 12H10.2857C11.2312 12 12 11.2312 12 10.2857V1.71429C12 0.76875 11.2312 0 10.2857 0H1.71429ZM3.61607 3.61607C3.86786 3.36429 4.275 3.36429 4.52411 3.61607L5.99732 5.08929L7.47054 3.61607C7.72232 3.36429 8.12946 3.36429 8.37857 3.61607C8.62768 3.86786 8.63036 4.275 8.37857 4.52411L6.90536 5.99732L8.37857 7.47054C8.63036 7.72232 8.63036 8.12946 8.37857 8.37857C8.12679 8.62768 7.71964 8.63036 7.47054 8.37857L5.99732 6.90536L4.52411 8.37857C4.27232 8.63036 3.86518 8.63036 3.61607 8.37857C3.36696 8.12679 3.36429 7.71964 3.61607 7.47054L5.08929 5.99732L3.61607 4.52411C3.36429 4.27232 3.36429 3.86518 3.61607 3.61607Z" fill="#262626"/>
</svg>
