<svg width="12" height="12" viewBox="0 0 12 12" fill="none" xmlns="http://www.w3.org/2000/svg">
<path d="M1.71429 0C0.76875 0 0 0.76875 0 1.71429V10.2857C0 11.2312 0.76875 12 1.71429 12H10.2857C11.2312 12 12 11.2312 12 10.2857V3.78482C12 3.32946 11.8205 2.89286 11.4991 2.57143L9.42857 0.500893C9.10714 0.179464 8.67054 0 8.21518 0H1.71429ZM2.57143 2.57143C2.57143 2.09732 2.95446 1.71429 3.42857 1.71429H7.71429C8.18839 1.71429 8.57143 2.09732 8.57143 2.57143V4.28571C8.57143 4.75982 8.18839 5.14286 7.71429 5.14286H3.42857C2.95446 5.14286 2.57143 4.75982 2.57143 4.28571V2.57143ZM6 6.85714C6.94554 6.85714 7.71429 7.62589 7.71429 8.57143C7.71429 9.51696 6.94554 10.2857 6 10.2857C5.05446 10.2857 4.28571 9.51696 4.28571 8.57143C4.28571 7.62589 5.05446 6.85714 6 6.85714Z" fill="#262626"/>
</svg>
